<svg width="40" height="40" viewBox="0 0 40 40" fill="none" xmlns="http://www.w3.org/2000/svg">
<rect width="40" height="40" rx="20" fill="#00A0E0"/>
<g clip-path="url(#clip0_1926_94320)">
<path d="M16.25 28.75H15V26.875H12.5V28.75H11.25V26.875C11.25 26.1846 11.8096 25.625 12.5 25.625H15C15.6904 25.625 16.25 26.1846 16.25 26.875V28.75Z" fill="white"/>
<path d="M28.75 28.75H27.5V26.875H25V28.75H23.75V26.875C23.75 26.1846 24.3096 25.625 25 25.625H27.5C28.1904 25.625 28.75 26.1846 28.75 26.875V28.75Z" fill="white"/>
<path d="M22.5 28.75H21.25V26.875H18.75V28.75H17.5V26.875C17.5 26.1846 18.0596 25.625 18.75 25.625H21.25C21.9404 25.625 22.5 26.1846 22.5 26.875V28.75Z" fill="white"/>
<path d="M20 25C20.6904 25 21.25 24.4404 21.25 23.75C21.25 23.0596 20.6904 22.5 20 22.5C19.3096 22.5 18.75 23.0596 18.75 23.75C18.75 24.4404 19.3096 25 20 25Z" fill="white"/>
<path d="M13.75 25C14.4404 25 15 24.4404 15 23.75C15 23.0596 14.4404 22.5 13.75 22.5C13.0596 22.5 12.5 23.0596 12.5 23.75C12.5 24.4404 13.0596 25 13.75 25Z" fill="white"/>
<path d="M26.25 25C26.9404 25 27.5 24.4404 27.5 23.75C27.5 23.0596 26.9404 22.5 26.25 22.5C25.5596 22.5 25 23.0596 25 23.75C25 24.4404 25.5596 25 26.25 25Z" fill="white"/>
<path d="M23.125 22.5C23.8154 22.5 24.375 21.9404 24.375 21.25C24.375 20.5596 23.8154 20 23.125 20C22.4346 20 21.875 20.5596 21.875 21.25C21.875 21.9404 22.4346 22.5 23.125 22.5Z" fill="white"/>
<path d="M16.875 22.5C17.5654 22.5 18.125 21.9404 18.125 21.25C18.125 20.5596 17.5654 20 16.875 20C16.1846 20 15.625 20.5596 15.625 21.25C15.625 21.9404 16.1846 22.5 16.875 22.5Z" fill="white"/>
<path d="M26.25 18.75H13.75C13.0596 18.75 12.5 18.1904 12.5 17.5V12.5C12.5 11.8096 13.0596 11.25 13.75 11.25H26.25C26.9404 11.25 27.5 11.8096 27.5 12.5V17.5C27.5 18.1904 26.9404 18.75 26.25 18.75ZM13.75 12.5V17.5H26.25V12.5H13.75Z" fill="white"/>
</g>
<defs>
<clipPath id="clip0_1926_94320">
<rect width="20" height="20" fill="white" transform="translate(10 10)"/>
</clipPath>
</defs>
</svg>
