<svg width="40" height="40" viewBox="0 0 40 40" fill="none" xmlns="http://www.w3.org/2000/svg">
<rect width="40" height="40" rx="20" fill="#00A0E0"/>
<g clip-path="url(#clip0_1926_94319)">
<path d="M17.5 15C16.8096 15 16.25 15.5596 16.25 16.25C16.25 16.9404 16.8096 17.5 17.5 17.5C18.1904 17.5 18.75 16.9404 18.75 16.25C18.75 15.5596 18.1904 15 17.5 15Z" fill="white"/>
<path d="M22.5 15C21.8096 15 21.25 15.5596 21.25 16.25C21.25 16.9404 21.8096 17.5 22.5 17.5C23.1904 17.5 23.75 16.9404 23.75 16.25C23.75 15.5596 23.1904 15 22.5 15Z" fill="white"/>
<path d="M21.0875 28.75L20 28.125L22.5 23.75H26.25C26.9404 23.75 27.5 23.1904 27.5 22.5V13.75C27.5 13.0596 26.9404 12.5 26.25 12.5H13.75C13.0596 12.5 12.5 13.0596 12.5 13.75V22.5C12.5 23.1904 13.0596 23.75 13.75 23.75H19.375V25H13.75C12.3693 25 11.25 23.8807 11.25 22.5V13.75C11.25 12.3693 12.3693 11.25 13.75 11.25H26.25C27.6307 11.25 28.75 12.3693 28.75 13.75V22.5C28.75 23.8807 27.6307 25 26.25 25H23.225L21.0875 28.75Z" fill="white"/>
<path d="M20 21.8751C18.5344 21.8745 17.1665 21.1401 16.3562 19.9188L17.3937 19.2251C17.9724 20.0998 18.9512 20.6258 20 20.6258C21.0487 20.6258 22.0275 20.0998 22.6062 19.2251L23.6437 19.9188C22.8334 21.1401 21.4655 21.8745 20 21.8751Z" fill="white"/>
</g>
<defs>
<clipPath id="clip0_1926_94319">
<rect width="20" height="20" fill="white" transform="translate(10 10)"/>
</clipPath>
</defs>
</svg>
